<?xml version="1.0" standalone="no"?>
<!DOCTYPE svg PUBLIC "-//W3C//DTD SVG 20010904//EN"
 "http://www.w3.org/TR/2001/REC-SVG-20010904/DTD/svg10.dtd">
<svg version="1.0" xmlns="http://www.w3.org/2000/svg"
 width="635.000000pt" height="580.000000pt" viewBox="0 0 635.000000 580.000000"
 preserveAspectRatio="xMidYMid meet">
<metadata>
Created by potrace 1.13, written by Peter Selinger 2001-2015
</metadata>
<g transform="translate(0.000000,580.000000) scale(0.100000,-0.100000)"
fill="#000000" stroke="none">
<path d="M2967 5628 c-9 -7 -20 -28 -23 -45 -5 -27 -3 -33 11 -33 19 0 18 -21
-1 -213 -5 -45 -2 -62 9 -75 13 -14 14 -26 6 -62 -17 -70 -19 -83 -25 -120 -3
-19 -7 -43 -10 -52 -6 -20 -5 -17 -33 -183 -23 -138 -57 -395 -66 -505 -3 -41
-9 -95 -12 -120 -3 -25 -6 -186 -8 -358 l-4 -313 -67 -71 c-85 -90 -156 -200
-186 -286 l-23 -67 -1 -1325 c-1 -857 2 -1336 9 -1355 27 -82 103 -140 230
-176 78 -23 97 -24 397 -24 173 0 333 3 355 7 82 15 97 19 149 38 65 25 127
77 152 127 18 36 19 91 20 1358 1 1261 0 1323 -18 1389 -31 114 -82 195 -201
322 l-58 62 -4 313 c-2 173 -5 330 -8 349 -3 19 -8 73 -12 120 -3 47 -8 101
-11 120 -7 66 -15 125 -19 150 -2 14 -6 48 -10 75 -3 28 -10 75 -15 105 -5 30
-12 71 -15 90 -3 19 -8 46 -10 60 -3 14 -8 36 -10 50 -3 14 -8 43 -10 64 -3
21 -8 42 -10 46 -2 4 -7 22 -10 41 -3 19 -10 52 -15 73 -6 29 -5 45 6 61 10
15 13 38 10 66 -3 24 -8 83 -11 132 -6 76 -5 87 9 87 13 0 15 7 11 33 -10 55
-19 57 -245 57 -149 0 -211 -3 -223 -12z"/>
<path d="M1736 5104 c-18 -18 -21 -54 -5 -54 8 0 9 -30 4 -104 -4 -67 -3 -111
4 -124 7 -12 7 -31 1 -53 -5 -19 -11 -45 -13 -59 -3 -14 -12 -65 -22 -115 -9
-49 -18 -101 -20 -115 -2 -14 -10 -72 -19 -130 -8 -58 -18 -132 -21 -165 -3
-33 -8 -73 -10 -90 -9 -71 -18 -302 -17 -450 l2 -160 -54 -55 c-67 -68 -119
-149 -145 -226 -19 -57 -20 -86 -20 -1079 0 -561 4 -1038 9 -1060 15 -71 100
-127 232 -153 46 -9 492 -8 553 1 28 4 78 21 113 38 l62 30 1 1057 c1 581 2
1068 4 1082 1 14 7 42 13 64 9 30 8 46 -3 72 -20 48 -71 121 -126 179 l-48 50
-5 275 c-2 151 -6 286 -9 300 -3 14 -8 59 -12 100 -12 138 -52 401 -85 559
-14 67 -17 98 -9 107 9 11 7 91 -5 196 -2 15 2 26 8 25 16 -3 15 42 -1 59 -22
22 -335 20 -357 -2z"/>
<path d="M4287 5102 c-21 -23 -22 -48 -1 -56 8 -3 13 -9 10 -14 -11 -18 -17
-194 -7 -206 8 -9 5 -40 -9 -107 -22 -109 -57 -311 -65 -384 -3 -27 -8 -59
-10 -70 -2 -11 -7 -54 -10 -95 -4 -41 -9 -86 -11 -100 -3 -14 -8 -151 -11
-305 l-5 -280 -47 -50 c-58 -61 -91 -107 -120 -163 -19 -38 -20 -47 -10 -85
18 -64 18 -65 18 -1169 l1 -1036 35 -21 c77 -45 144 -55 395 -55 129 -1 259 2
288 6 117 15 218 73 241 139 8 23 11 339 11 1066 -1 1029 -1 1034 -22 1091
-28 76 -78 153 -144 222 l-53 56 0 170 c1 161 -6 349 -16 424 -2 19 -7 62 -10
95 -5 57 -12 115 -20 180 -8 55 -56 329 -66 375 -18 79 -19 83 -8 96 10 13 5
176 -6 194 -3 4 2 13 10 20 17 14 13 59 -7 72 -7 4 -85 8 -174 8 -143 0 -163
-2 -177 -18z"/>
</g>
</svg>
