<?xml version="1.0" standalone="no"?>
<!DOCTYPE svg PUBLIC "-//W3C//DTD SVG 20010904//EN"
 "http://www.w3.org/TR/2001/REC-SVG-20010904/DTD/svg10.dtd">
<svg version="1.0" xmlns="http://www.w3.org/2000/svg"
 width="635.000000pt" height="580.000000pt" viewBox="0 0 635.000000 580.000000"
 preserveAspectRatio="xMidYMid meet">
<metadata>
Created by potrace 1.13, written by Peter Selinger 2001-2015
</metadata>
<g transform="translate(0.000000,580.000000) scale(0.100000,-0.100000)"
fill="#000000" stroke="none">
<path d="M1732 5108 c-14 -14 -16 -54 -4 -62 4 -2 7 -71 6 -153 -1 -114 -8
-179 -28 -283 -60 -305 -105 -802 -90 -1017 l6 -103 -71 -76 c-46 -49 -84
-102 -108 -152 l-38 -76 -3 -1050 c-1 -578 0 -1061 3 -1074 9 -37 72 -98 123
-120 83 -36 181 -45 433 -40 246 5 302 14 377 60 l32 20 0 1046 c0 745 3 1064
12 1107 6 33 11 74 11 92 1 39 -63 140 -133 208 l-50 49 0 221 c0 312 -38 678
-103 992 -16 76 -21 117 -14 129 6 10 7 55 3 110 -5 67 -4 98 5 113 10 15 10
25 1 45 l-12 26 -173 0 c-121 0 -177 -4 -185 -12z"/>
<path d="M4286 5104 c-19 -18 -21 -54 -5 -54 9 0 10 -29 5 -106 -4 -69 -3
-110 4 -119 7 -8 4 -41 -10 -108 -70 -343 -100 -612 -107 -957 l-5 -275 -42
-45 c-58 -61 -99 -117 -124 -166 -20 -40 -21 -45 -7 -110 12 -58 15 -241 15
-1126 l0 -1058 43 -21 c82 -43 134 -51 353 -56 315 -8 439 14 520 92 33 31 44
50 49 85 3 25 5 506 3 1070 -3 985 -4 1027 -22 1070 -30 69 -83 148 -141 209
l-53 56 -5 280 c-6 345 -47 699 -113 984 -10 47 -11 67 -3 77 7 9 9 46 4 119
-5 75 -4 105 4 105 16 0 13 36 -5 54 -13 13 -44 16 -179 16 -135 0 -166 -3
-179 -16z"/>
</g>
</svg>
