<?xml version="1.0" standalone="no"?>
<!DOCTYPE svg PUBLIC "-//W3C//DTD SVG 20010904//EN"
 "http://www.w3.org/TR/2001/REC-SVG-20010904/DTD/svg10.dtd">
<svg version="1.0" xmlns="http://www.w3.org/2000/svg"
 width="671.000000pt" height="572.000000pt" viewBox="0 0 671.000000 572.000000"
 preserveAspectRatio="xMidYMid meet">
<metadata>
Created by potrace 1.13, written by Peter Selinger 2001-2015
</metadata>
<g transform="translate(0.000000,572.000000) scale(0.100000,-0.100000)"
fill="#000000" stroke="none">
<path d="M5230 5344 c-539 -115 -1492 -779 -1863 -1296 -98 -138 -207 -372
-277 -596 -17 -56 -35 -102 -39 -102 -4 0 -433 -214 -952 -475 -685 -345 -949
-482 -963 -502 -11 -15 -21 -48 -23 -77 -5 -60 18 -105 69 -136 70 -42 49 -51
939 397 456 229 831 414 833 412 3 -2 -2 -34 -9 -69 -35 -168 -75 -540 -75
-702 l0 -68 -372 -187 c-257 -130 -378 -196 -391 -214 -46 -64 -26 -161 42
-206 68 -46 89 -39 432 133 171 85 312 154 313 152 1 -2 11 -43 23 -91 46
-184 139 -313 253 -353 80 -28 228 -25 340 6 582 161 1435 805 1785 1349 224
348 373 949 416 1679 22 386 -23 706 -121 840 -80 111 -189 143 -360 106z
m145 -336 c8 -29 19 -84 25 -123 10 -74 14 -385 4 -385 -3 0 -32 21 -65 46
-93 72 -278 187 -401 249 -104 54 -110 59 -92 72 81 61 408 190 486 192 25 1
29 -4 43 -51z m-967 -443 c15 -8 75 -33 134 -55 250 -96 523 -265 740 -459 37
-33 74 -64 83 -68 13 -8 12 -27 -10 -158 -69 -404 -181 -746 -310 -947 -135
-208 -391 -467 -703 -711 -86 -68 -116 -86 -126 -78 -7 6 -69 34 -137 62 -314
128 -577 293 -788 492 l-73 68 22 127 c76 451 224 845 408 1087 63 82 247 270
359 367 79 68 361 287 371 288 2 0 16 -7 30 -15z m-1028 -2517 c110 -71 288
-169 368 -204 61 -26 62 -27 41 -42 -40 -28 -273 -124 -348 -143 -105 -27
-156 -25 -185 6 -45 49 -75 209 -76 402 l0 123 58 -44 c31 -24 95 -68 142 -98z"/>
<path d="M4230 3982 c-56 -56 -38 -107 60 -168 l59 -36 -51 -82 c-28 -44 -52
-82 -53 -84 -1 -2 -30 13 -63 33 -75 44 -113 45 -153 6 -51 -52 -30 -113 56
-162 30 -17 55 -36 55 -42 0 -11 -89 -157 -96 -157 -2 0 -34 16 -71 36 -73 39
-100 39 -140 2 -27 -25 -31 -82 -8 -115 8 -12 40 -36 71 -53 52 -30 54 -33 41
-54 -44 -66 -77 -125 -77 -135 0 -17 -10 -14 -73 24 -35 21 -71 35 -91 35 -79
0 -117 -98 -58 -152 46 -43 562 -348 589 -348 31 0 79 25 87 45 21 54 -6 108
-73 146 l-38 21 43 64 c24 36 48 72 53 81 8 16 14 15 65 -11 63 -32 93 -30
132 9 47 47 22 110 -65 166 l-23 15 42 69 c61 101 55 97 103 69 60 -34 109
-32 141 7 44 51 27 108 -43 147 -23 13 -41 26 -41 29 0 13 93 164 99 161 3 -2
32 -16 63 -31 l57 -29 38 19 c27 13 40 27 47 50 19 68 7 79 -298 269 -315 198
-335 206 -386 156z"/>
<path d="M2535 4066 c-545 -275 -1001 -507 -1013 -514 -37 -21 -65 -94 -56
-145 9 -55 64 -111 119 -121 38 -8 70 7 768 356 l728 363 56 89 c79 124 158
222 292 359 63 64 110 117 105 116 -5 -1 -454 -227 -999 -503z"/>
<path d="M2738 3664 c-192 -97 -230 -119 -248 -149 -44 -71 -21 -168 49 -208
52 -31 95 -26 203 25 l97 46 32 104 c17 56 47 145 66 196 19 51 33 95 31 97
-1 2 -105 -48 -230 -111z"/>
<path d="M2267 2409 c-424 -213 -428 -215 -443 -295 -8 -45 26 -118 68 -144
66 -40 88 -33 440 139 l325 159 7 149 c4 81 9 158 13 171 3 12 1 22 -3 21 -5
0 -188 -90 -407 -200z"/>
<path d="M1975 1142 l-770 -387 -23 -47 c-19 -38 -22 -56 -17 -90 10 -56 64
-112 120 -123 38 -7 72 9 833 389 l792 396 -45 56 c-25 30 -61 86 -80 125 -20
38 -36 69 -38 68 -1 0 -348 -174 -772 -387z"/>
</g>
</svg>
