<?xml version="1.0" standalone="no"?>
<!DOCTYPE svg PUBLIC "-//W3C//DTD SVG 20010904//EN"
 "http://www.w3.org/TR/2001/REC-SVG-20010904/DTD/svg10.dtd">
<svg version="1.0" xmlns="http://www.w3.org/2000/svg"
 width="671.000000pt" height="572.000000pt" viewBox="0 0 671.000000 572.000000"
 preserveAspectRatio="xMidYMid meet">
<metadata>
Created by potrace 1.13, written by Peter Selinger 2001-2015
</metadata>
<g transform="translate(0.000000,572.000000) scale(0.100000,-0.100000)"
fill="#000000" stroke="none">
<path d="M5270 5348 c-313 -44 -940 -395 -1405 -787 -121 -101 -303 -279 -310
-302 -4 -11 -12 -19 -19 -19 -14 0 -132 -143 -193 -235 -96 -145 -189 -348
-252 -552 l-30 -98 -942 -470 c-993 -496 -991 -495 -1005 -570 -16 -89 52
-175 141 -175 14 0 403 189 865 420 718 359 840 417 840 399 0 -11 4 -17 10
-14 11 7 2 -80 -11 -106 -41 -80 -68 -266 -75 -504 -3 -87 -7 -161 -9 -164 -3
-2 -5 -13 -5 -23 0 -14 -86 -61 -370 -203 -395 -197 -401 -201 -416 -281 -8
-45 26 -118 68 -144 64 -39 84 -32 422 135 172 85 315 155 318 155 3 0 11 -26
17 -57 68 -305 232 -441 487 -405 235 34 532 174 921 434 232 155 393 286 594
487 260 261 366 401 475 626 136 282 240 685 289 1120 28 252 27 248 16 241
-14 -9 -14 -4 5 72 24 94 14 515 -14 652 -49 232 -126 340 -263 369 -56 12
-58 12 -149 -1z m101 -315 c23 -59 39 -185 45 -360 4 -101 4 -183 0 -183 -3 0
-39 24 -79 54 -111 82 -232 158 -383 241 l-138 74 145 70 c161 79 305 130 362
131 32 0 39 -4 48 -27z m-965 -462 c5 -5 54 -26 109 -46 285 -106 544 -271
863 -550 14 -12 -68 -417 -119 -596 -96 -334 -189 -506 -409 -755 -162 -182
-607 -558 -634 -534 -8 5 -71 33 -142 61 -289 113 -550 274 -765 471 -50 46
-89 90 -89 100 0 43 75 385 115 523 62 212 87 281 165 440 83 170 145 252 320
431 148 151 253 242 434 376 119 88 134 96 152 79z m-1101 -2471 c4 0 34 -20
68 -43 71 -50 273 -163 371 -207 36 -17 66 -33 66 -36 0 -3 -55 -32 -123 -64
-189 -91 -339 -128 -410 -101 -49 19 -83 158 -94 385 l-6 149 61 -42 c33 -22
64 -41 67 -41z"/>
<path d="M2524 4057 c-545 -276 -999 -508 -1008 -516 -27 -23 -46 -67 -46
-108 0 -79 63 -144 140 -142 26 0 229 98 755 362 l719 362 49 80 c63 102 172
239 294 365 52 55 94 100 92 99 -2 0 -450 -226 -995 -502z"/>
<path d="M2735 3657 c-178 -91 -224 -118 -242 -146 -58 -87 -1 -207 103 -219
41 -4 58 1 144 43 l97 48 28 91 c15 50 44 137 65 194 20 56 35 102 31 102 -3
-1 -105 -51 -226 -113z"/>
<path d="M2270 2406 c-220 -111 -396 -205 -410 -221 -21 -23 -25 -36 -25 -90
0 -54 4 -67 25 -90 32 -35 72 -55 107 -55 16 0 169 68 361 162 l332 162 0 95
c0 53 3 126 7 164 3 37 2 67 -3 66 -5 0 -182 -87 -394 -193z"/>
<path d="M1985 1144 c-537 -270 -768 -392 -788 -414 -75 -84 -4 -230 113 -230
28 0 878 415 1427 698 l163 83 -42 55 c-22 30 -57 85 -77 123 l-36 68 -760
-383z"/>
</g>
</svg>
