<?xml version="1.0" standalone="no"?>
<!DOCTYPE svg PUBLIC "-//W3C//DTD SVG 20010904//EN"
 "http://www.w3.org/TR/2001/REC-SVG-20010904/DTD/svg10.dtd">
<svg version="1.0" xmlns="http://www.w3.org/2000/svg"
 width="256.000000pt" height="256.000000pt" viewBox="0 0 256.000000 256.000000"
 preserveAspectRatio="xMidYMid meet">
<metadata>
Created by potrace 1.13, written by Peter Selinger 2001-2015
</metadata>
<g transform="translate(0.000000,256.000000) scale(0.100000,-0.100000)"
fill="#000000" stroke="none">
<path d="M1376 2072 c-11 -18 -9 -372 2 -372 12 0 145 328 139 343 -3 8 -31
19 -63 25 -68 14 -71 14 -78 4z"/>
<path d="M850 1969 c-47 -28 -80 -60 -80 -75 0 -14 268 -284 282 -284 4 0 8 4
8 9 0 14 -129 323 -145 348 -19 28 -21 28 -65 2z"/>
<path d="M1770 1644 c-79 -80 -130 -139 -122 -141 7 -3 81 23 164 57 204 84
198 80 198 104 0 32 -62 116 -85 116 -14 0 -70 -49 -155 -136z"/>
<path d="M500 1465 c-5 -14 -11 -45 -12 -68 l-3 -42 173 -3 c97 -1 172 1 172
7 0 9 -286 131 -308 131 -7 0 -17 -11 -22 -25z"/>
<path d="M1735 1180 c-6 -10 35 -31 117 -60 27 -10 34 -17 25 -23 -8 -6 -7 -7
5 -3 10 3 50 -8 89 -24 39 -17 78 -30 85 -30 18 0 31 26 39 84 6 36 4 50 -6
57 -20 12 -346 11 -354 -1z"/>
<path d="M771 981 c-189 -78 -201 -85 -201 -109 0 -27 68 -122 88 -122 19 0
292 268 292 288 0 6 -3 12 -7 11 -5 0 -82 -31 -172 -68z"/>
<path d="M1510 911 c0 -18 140 -345 153 -359 13 -12 19 -11 48 4 47 24 99 64
99 77 0 6 -62 73 -137 149 -123 124 -163 156 -163 129z"/>
<path d="M1174 775 c-81 -196 -113 -279 -109 -286 7 -11 73 -29 108 -29 l27 0
0 175 c0 96 -2 175 -6 175 -3 0 -12 -16 -20 -35z"/>
</g>
</svg>
