<?xml version="1.0" standalone="no"?>
<!DOCTYPE svg PUBLIC "-//W3C//DTD SVG 20010904//EN"
 "http://www.w3.org/TR/2001/REC-SVG-20010904/DTD/svg10.dtd">
<svg version="1.0" xmlns="http://www.w3.org/2000/svg"
 width="256.000000pt" height="256.000000pt" viewBox="0 0 256.000000 256.000000"
 preserveAspectRatio="xMidYMid meet">
<metadata>
Created by potrace 1.13, written by Peter Selinger 2001-2015
</metadata>
<g transform="translate(0.000000,256.000000) scale(0.100000,-0.100000)"
fill="#000000" stroke="none">
<path d="M1070 2254 c-285 -61 -545 -265 -675 -529 -107 -217 -130 -484 -64
-726 44 -163 165 -354 296 -466 143 -123 269 -188 449 -229 109 -26 319 -26
429 0 218 50 425 179 561 349 73 92 164 267 188 363 42 167 41 381 -3 535
-101 351 -397 632 -743 703 -97 20 -346 20 -438 0z m154 -156 c9 -33 6 -469
-3 -493 -7 -18 -9 -17 -24 12 -34 64 -177 423 -177 442 0 21 21 30 115 50 67
15 82 13 89 -11z m537 -136 c29 -21 55 -46 57 -56 5 -25 -310 -339 -315 -314
-5 19 132 364 155 391 22 25 42 21 103 -21z m-936 -318 c126 -126 164 -174
139 -174 -4 0 -56 21 -118 47 -61 26 -114 46 -118 45 -5 -1 -8 3 -8 8 0 6 -3
9 -7 9 -5 -1 -11 0 -15 1 -5 1 -11 3 -15 4 -5 2 -34 14 -65 29 -45 20 -58 31
-58 47 0 39 72 130 102 130 10 0 81 -63 163 -146z m1279 -156 c8 -29 18 -77
21 -105 l7 -53 -261 0 c-144 0 -261 4 -261 9 0 5 6 13 13 18 10 9 231 102 382
162 76 30 82 28 99 -31z m-741 -148 c59 -66 13 -162 -78 -162 -47 0 -81 24
-95 67 -10 30 -9 41 7 72 34 71 113 81 166 23z m-417 -123 c4 -4 3 -12 -2 -17
-10 -10 -395 -171 -440 -184 -20 -6 -23 0 -39 62 -9 38 -15 84 -13 103 2 28 8
35 33 41 41 9 451 5 461 -5z m879 -239 c94 -38 177 -76 185 -84 13 -13 12 -19
-8 -57 -12 -23 -35 -57 -51 -76 l-28 -34 -29 20 c-52 37 -284 281 -284 298 0
21 2 20 215 -67z m-745 -46 c0 -11 -132 -328 -154 -371 -9 -17 -20 -31 -25
-31 -16 0 -135 84 -139 98 -2 7 63 81 144 163 133 133 174 167 174 141z m374
-213 c46 -113 86 -214 88 -224 4 -24 -46 -43 -135 -52 -45 -5 -61 -3 -68 8
-14 22 -11 463 3 477 7 7 16 8 20 4 4 -4 46 -100 92 -213z"/>
</g>
</svg>
