<?xml version="1.0" standalone="no"?>
<!DOCTYPE svg PUBLIC "-//W3C//DTD SVG 20010904//EN"
 "http://www.w3.org/TR/2001/REC-SVG-20010904/DTD/svg10.dtd">
<svg version="1.0" xmlns="http://www.w3.org/2000/svg"
 width="700.000000pt" height="612.000000pt" viewBox="0 0 700.000000 612.000000"
 preserveAspectRatio="xMidYMid meet">
<metadata>
Created by potrace 1.13, written by Peter Selinger 2001-2015
</metadata>
<g transform="translate(0.000000,612.000000) scale(0.100000,-0.100000)"
fill="#000000" stroke="none">
<path d="M3240 6109 c-725 -66 -1375 -377 -1890 -905 -984 -1009 -1130 -2560
-351 -3736 489 -739 1271 -1220 2161 -1330 136 -17 534 -17 670 0 540 67 1032
264 1463 588 155 117 402 346 504 467 379 455 612 995 685 1587 17 137 17 544
0 680 -61 488 -220 919 -487 1320 -112 168 -195 270 -345 424 -281 288 -563
489 -905 644 -283 128 -553 205 -865 247 -142 19 -499 27 -640 14z m654 -214
c139 -21 393 -84 544 -136 110 -38 342 -142 342 -153 0 -3 -62 -35 -137 -71
-259 -124 -455 -277 -645 -505 -96 -114 -135 -180 -144 -239 l-7 -44 -18 35
c-22 43 -80 95 -128 115 -55 23 -166 19 -254 -11 -41 -14 -121 -32 -177 -41
-131 -19 -176 -43 -210 -110 -36 -71 -36 -198 0 -270 30 -63 98 -129 153 -150
29 -11 50 -28 67 -56 l25 -41 70 8 c134 15 129 16 136 -44 4 -32 19 -72 36
-100 23 -39 41 -53 101 -82 69 -33 73 -37 92 -89 51 -135 150 -212 272 -213
68 -1 117 15 190 59 68 42 70 42 218 -27 58 -27 135 -56 170 -65 36 -9 81 -21
100 -26 46 -11 104 -87 236 -304 142 -234 204 -309 307 -369 60 -36 71 -66 64
-169 -7 -96 -31 -183 -99 -366 l-50 -134 -107 -106 c-76 -75 -141 -155 -226
-276 -185 -263 -364 -433 -598 -570 -93 -55 -248 -124 -276 -125 -19 0 -51 30
-51 48 0 8 36 87 79 176 147 299 185 426 186 616 0 127 -2 138 -28 195 -21 44
-54 85 -131 161 -161 160 -254 315 -286 481 -19 97 -8 262 24 352 33 95 34
168 2 236 -20 45 -42 68 -113 126 -15 12 -24 42 -37 129 -26 166 -69 269 -134
317 -74 55 -184 92 -342 118 -203 32 -295 55 -365 89 -226 111 -411 381 -684
996 -90 201 -91 205 -71 220 51 39 266 153 365 195 346 146 530 194 915 239
84 10 520 -3 624 -19z"/>
</g>
</svg>
