<?xml version="1.0" standalone="no"?>
<!DOCTYPE svg PUBLIC "-//W3C//DTD SVG 20010904//EN"
 "http://www.w3.org/TR/2001/REC-SVG-20010904/DTD/svg10.dtd">
<svg version="1.0" xmlns="http://www.w3.org/2000/svg"
 width="700.000000pt" height="612.000000pt" viewBox="0 0 700.000000 612.000000"
 preserveAspectRatio="xMidYMid meet">
<metadata>
Created by potrace 1.13, written by Peter Selinger 2001-2015
</metadata>
<g transform="translate(0.000000,612.000000) scale(0.100000,-0.100000)"
fill="#000000" stroke="none">
<path d="M3240 6109 c-585 -53 -1147 -278 -1610 -645 -139 -110 -415 -394
-520 -536 -554 -742 -740 -1649 -519 -2537 264 -1064 1117 -1916 2181 -2180
1171 -291 2397 143 3121 1106 324 430 522 922 589 1463 17 137 17 544 0 680
-61 488 -220 919 -487 1320 -112 168 -195 270 -345 424 -281 288 -563 489
-905 644 -283 128 -553 205 -865 247 -142 19 -499 27 -640 14z m630 -214 c136
-19 305 -55 444 -97 162 -48 477 -180 463 -195 -3 -2 -48 -24 -101 -48 -268
-121 -490 -295 -701 -550 -92 -112 -112 -145 -121 -204 l-6 -40 -25 37 c-29
44 -53 65 -108 94 -59 32 -175 30 -275 -4 -41 -14 -111 -31 -155 -37 -108 -16
-148 -29 -189 -63 -73 -60 -89 -230 -30 -337 32 -61 100 -125 148 -141 20 -6
45 -28 65 -56 23 -34 36 -44 49 -39 9 3 53 9 97 12 l80 6 2 -39 c5 -93 71
-181 155 -206 46 -13 59 -29 82 -91 56 -150 207 -234 347 -193 30 8 76 29 102
46 26 16 61 30 78 30 17 0 88 -25 158 -56 69 -31 160 -63 201 -72 52 -10 84
-23 103 -41 33 -30 126 -165 187 -271 113 -196 196 -298 303 -372 32 -22 62
-51 68 -64 26 -69 -12 -252 -98 -479 l-50 -130 -109 -110 c-77 -77 -147 -163
-234 -285 -185 -260 -357 -423 -597 -563 -82 -48 -235 -116 -262 -117 -20 0
-51 30 -51 50 0 9 33 82 74 161 141 275 198 454 198 629 0 171 -28 230 -180
374 -130 123 -205 241 -253 396 -20 61 -24 97 -24 195 0 108 3 131 34 228 36
119 37 156 1 232 -22 47 -42 71 -92 109 -43 32 -43 31 -62 162 -43 294 -132
365 -542 433 -273 45 -363 87 -503 237 -159 170 -284 394 -511 910 l-57 131
111 66 c364 217 739 333 1221 381 85 9 456 -4 565 -19z m1245 -490 c549 -394
931 -949 1095 -1591 67 -259 84 -400 84 -694 0 -214 -4 -278 -23 -399 -75
-488 -258 -919 -557 -1313 -101 -132 -370 -401 -502 -502 -315 -239 -651 -403
-1018 -497 -257 -65 -400 -82 -689 -83 -261 0 -374 11 -585 55 -413 88 -800
270 -1150 539 -125 96 -386 359 -481 485 -314 412 -489 831 -566 1350 -13 91
-17 181 -17 370 0 288 18 431 83 689 119 463 356 892 685 1234 110 114 314
294 328 290 5 -2 45 -84 89 -183 234 -529 385 -770 597 -956 127 -112 272
-169 527 -208 229 -36 306 -64 336 -123 11 -21 28 -93 39 -160 26 -152 54
-216 116 -258 65 -46 68 -57 39 -143 -35 -106 -48 -206 -42 -327 13 -254 116
-466 332 -682 121 -122 130 -141 122 -272 -7 -127 -56 -271 -169 -498 -104
-207 -116 -258 -83 -345 35 -92 138 -163 236 -163 116 0 416 158 634 333 128
103 261 250 390 432 108 152 207 266 315 361 37 31 39 37 131 296 134 379 117
569 -59 681 -85 55 -130 106 -212 242 -120 198 -218 340 -270 392 -53 54 -62
58 -219 98 -36 9 -99 32 -140 52 -202 94 -303 97 -420 14 -70 -50 -126 -32
-160 51 -48 115 -76 148 -161 186 -30 14 -58 30 -61 35 -4 5 -2 25 3 45 13 46
3 95 -28 131 -26 32 -98 61 -150 61 -25 0 -37 6 -46 24 -7 13 -28 36 -47 52
l-33 27 -42 -23 c-54 -29 -89 -22 -116 23 -23 37 -27 102 -7 110 8 3 45 8 83
12 38 3 113 20 167 37 117 37 142 33 171 -27 16 -31 20 -60 19 -146 l0 -108
56 -8 c177 -25 284 19 321 133 12 35 9 128 -6 210 -5 28 3 42 74 130 173 213
345 354 567 464 136 68 284 128 315 129 8 0 55 -28 105 -64z"/>
</g>
</svg>
